{
.appVersion = "3134";
DisplayStrings = (
"ADHESION\012adhesion\012\012OHIOANS/space HENNA/space SENDEE/space DOE/space NON/space INDONESIANS/space NONADHESION",
"/A.ss01/D.ss01/E.ss01/H.ss01/I.ss01/N.ss01/O.ss01/S.ss01"
);
customParameters = (
{
disabled = 1;
name = glyphOrder;
value = (
.notdef,
A,
B,
a,
C,
D,
E,
G,
g,
H,
T,
I,
J,
N,
n,
O,
K,
L,
P,
S,
V,
W,
X,
Z,
i,
zero,
one,
two,
three,
four,
five,
six,
seven,
eight,
nine,
Q,
F,
R,
U,
Y,
k,
r,
t,
v,
w,
x,
M,
m,
p,
f,
question,
quotesingle,
u,
j,
l,
b,
c,
d,
o,
q,
y,
z,
s,
h,
e
);
}
);
date = "2023-07-25 19:12:39 +0000";
familyName = VER_V_0.1.4;
featurePrefixes = (
{
automatic = 1;
code = "languagesystem DFLT dflt;\012";
name = Languagesystems;
}
);
features = (
{
automatic = 1;
code = "feature ss01;\012";
name = aalt;
},
{
automatic = 1;
code = "sub A by A.ss01;\012sub D by D.ss01;\012sub E by E.ss01;\012sub H by H.ss01;\012sub I by I.ss01;\012sub N by N.ss01;\012sub O by O.ss01;\012sub S by S.ss01;\012";
name = ss01;
notes = "Name: Set 01";
}
);
fontMaster = (
{
ascender = 750;
capHeight = 700;
customParameters = (
{
name = typoAscender;
value = 750;
},
{
name = typoDescender;
value = -250;
},
{
name = typoLineGap;
value = 100;
},
{
name = winAscent;
value = 750;
},
{
name = winDescent;
value = 250;
},
{
name = underlineThickness;
value = 50;
},
{
name = underlinePosition;
value = -100;
},
{
name = strikeoutPosition;
value = 300;
},
{
name = strikeoutSize;
value = 50;
},
{
name = subscriptXOffset;
value = 0;
},
{
name = subscriptXSize;
value = 650;
},
{
name = subscriptYOffset;
value = 75;
},
{
name = subscriptYSize;
value = 600;
},
{
name = superscriptXOffset;
value = 0;
},
{
name = superscriptXSize;
value = 650;
},
{
name = superscriptYOffset;
value = 350;
},
{
name = superscriptYSize;
value = 600;
},
{
name = hheaAscender;
value = 750;
},
{
name = hheaDescender;
value = -250;
},
{
name = hheaLineGap;
value = 100;
}
);
descender = -250;
guideLines = (
{
position = "{0, 250}";
}
);

glyphs = (
{
glyphname = A;
lastChange = "2023-07-30 17:58:37 +0000";
layers = (
{
layerId = "506641A2-9742-4A10-B0B8-C0DC56E2C3BB";
paths = (
{
closed = 1;
nodes = (
"434 26 OFFCURVE",
"537 138 OFFCURVE",
"514 138 CURVE SMOOTH",
"512 138 OFFCURVE",
"510 138 OFFCURVE",
"506 136 CURVE SMOOTH",
"499 133 OFFCURVE",
"491 131 OFFCURVE",
"484 131 CURVE SMOOTH",
"458 131 OFFCURVE",
"435 151 OFFCURVE",
"427 182 CURVE SMOOTH",
"425 189 OFFCURVE",
"424 199 OFFCURVE",
"424 203 CURVE SMOOTH",
"424 562 LINE SMOOTH",
"424 660 OFFCURVE",
"383 700 OFFCURVE",
"333 700 CURVE SMOOTH",
"274 700 OFFCURVE",
"201 643 OFFCURVE",
"170 563 CURVE SMOOTH",
"156 529 OFFCURVE",
"146 480 OFFCURVE",
"144 452 CURVE SMOOTH",
"134 317 OFFCURVE",
"131 -4 OFFCURVE",
"131 22 CURVE SMOOTH",
"131 7 OFFCURVE",
"143 0 OFFCURVE",
"156 0 CURVE SMOOTH",
"169 0 OFFCURVE",
"182 8 OFFCURVE",
"182 24 CURVE",
"182 24 OFFCURVE",
"187 339 OFFCURVE",
"194 448 CURVE SMOOTH",
"196 470 OFFCURVE",
"209 523 OFFCURVE",
"217 545 CURVE SMOOTH",
"227 570 OFFCURVE",
"245 600 OFFCURVE",
"261 600 CURVE SMOOTH",
"279 600 OFFCURVE",
"295 562 OFFCURVE",
"295 438 CURVE SMOOTH",
"295 79 LINE SMOOTH",
"295 67 OFFCURVE",
"296 62 OFFCURVE",
"298 53 CURVE SMOOTH",
"306 27 OFFCURVE",
"326 0 OFFCURVE",
"360 0 CURVE SMOOTH",
"371 0 OFFCURVE",
"383 3 OFFCURVE",
"396 9 CURVE SMOOTH"
);
},
{
closed = 1;
nodes = (
"465 230 LINE SMOOTH",
"481 230 OFFCURVE",
"530 355 OFFCURVE",
"530 391 CURVE SMOOTH",
"530 397 OFFCURVE",
"528 401 OFFCURVE",
"525 401 CURVE SMOOTH",
"105 401 LINE SMOOTH",
"88 401 OFFCURVE",
"40 274 OFFCURVE",
"40 239 CURVE SMOOTH",
"40 233 OFFCURVE",
"41 230 OFFCURVE",
"44 230 CURVE SMOOTH"
);
}
);
width = 570;
}
);
leftKerningGroup = A;
leftMetricsKey = N;
rightKerningGroup = A;
rightMetricsKey = N;
unicode = 0041;
},
{
glyphname = D;
lastChange = "2023-07-30 17:59:10 +0000";
layers = (
{
guideLines = (
{
angle = 90;
position = "{33, 0}";
},
{
angle = 90;
position = "{484, 0}";
},
{
position = "{34, 0}";
}
);
layerId = "506641A2-9742-4A10-B0B8-C0DC56E2C3BB";
paths = (
{
closed = 1;
nodes = (
"378 0 OFFCURVE",
"477 70 OFFCURVE",
"517 196 CURVE SMOOTH",
"524 219 OFFCURVE",
"527 241 OFFCURVE",
"527 263 CURVE SMOOTH",
"527 508 OFFCURVE",
"116 693 OFFCURVE",
"104 699 CURVE SMOOTH",
"92 705 OFFCURVE",
"31 535 OFFCURVE",
"42 529 CURVE SMOOTH",
"48 526 OFFCURVE",
"399 363 OFFCURVE",
"399 139 CURVE SMOOTH",
"399 117 OFFCURVE",
"395 95 OFFCURVE",
"388 72 CURVE",
"387 71 OFFCURVE",
"424 123 OFFCURVE",
"424 156 CURVE SMOOTH",
"424 170 OFFCURVE",
"416 181 OFFCURVE",
"395 181 CURVE SMOOTH",
"381 181 OFFCURVE",
"308 187 OFFCURVE",
"235 187 CURVE SMOOTH",
"182 187 OFFCURVE",
"130 184 OFFCURVE",
"102 173 CURVE SMOOTH",
"82 165 OFFCURVE",
"24 -6 OFFCURVE",
"44 2 CURVE SMOOTH",
"68 12 OFFCURVE",
"106 15 OFFCURVE",
"149 15 CURVE SMOOTH",
"240 15 OFFCURVE",
"350 0 OFFCURVE",
"377 0 CURVE SMOOTH"
);
},
{
closed = 1;
nodes = (
"119 116 OFFCURVE",
"131 109 OFFCURVE",
"144 109 CURVE SMOOTH",
"157 109 OFFCURVE",
"170 117 OFFCURVE",
"170 134 CURVE",
"170 134 OFFCURVE",
"177 513 OFFCURVE",
"177 542 CURVE SMOOTH",
"177 558 OFFCURVE",
"164 567 OFFCURVE",
"151 567 CURVE SMOOTH",
"138 567 OFFCURVE",
"126 559 OFFCURVE",
"126 542 CURVE SMOOTH",
"126 494 OFFCURVE",
"119 95 OFFCURVE",
"119 132 CURVE SMOOTH"
);
}
);
width = 547;
}
);
leftKerningGroup = D;
leftMetricsKey = N;
rightKerningGroup = D;
rightMetricsKey = O;
unicode = 0044;
},
{
glyphname = E;
lastChange = "2023-07-30 17:59:38 +0000";
layers = (
{
layerId = "506641A2-9742-4A10-B0B8-C0DC56E2C3BB";
paths = (
{
closed = 1;
nodes = (
"44 -9 OFFCURVE",
"86 43 OFFCURVE",
"139 43 CURVE SMOOTH",
"146 43 OFFCURVE",
"153 42 OFFCURVE",
"161 40 CURVE",
"223 21 OFFCURVE",
"274 -1 OFFCURVE",
"325 -1 CURVE SMOOTH",
"354 -1 OFFCURVE",
"382 6 OFFCURVE",
"413 25 CURVE",
"432 38 OFFCURVE",
"494 214 OFFCURVE",
"473 202 CURVE",
"444 184 OFFCURVE",
"416 177 OFFCURVE",
"388 177 CURVE SMOOTH",
"338 177 OFFCURVE",
"287 198 OFFCURVE",
"224 216 CURVE",
"214 219 OFFCURVE",
"204 221 OFFCURVE",
"195 221 CURVE SMOOTH",
"137 221 OFFCURVE",
"112 161 OFFCURVE",
"112 164 CURVE",
"112 348 OFFCURVE",
"153 497 OFFCURVE",
"197 513 CURVE",
"215 520 OFFCURVE",
"233 523 OFFCURVE",
"249 523 CURVE SMOOTH",
"330 523 OFFCURVE",
"382 448 OFFCURVE",
"385 445 CURVE",
"395 434 OFFCURVE",
"489 597 OFFCURVE",
"479 608 CURVE",
"476 611 OFFCURVE",
"404 699 OFFCURVE",
"310 699 CURVE SMOOTH",
"294 699 OFFCURVE",
"277 696 OFFCURVE",
"259 690 CURVE",
"44 610 OFFCURVE",
"44 3 OFFCURVE",
"44 1 CURVE"
);
},
{
closed = 1;
nodes = (
"393 246 LINE",
"410 246 OFFCURVE",
"473 423 OFFCURVE",
"456 423 CURVE",
"106 423 LINE",
"89 423 OFFCURVE",
"27 246 OFFCURVE",
"43 246 CURVE"
);
}
);
width = 520;
}
);
leftKerningGroup = E;
leftMetricsKey = N;
rightKerningGroup = E;
rightMetricsKey = N;
unicode = 0045;
},
{
glyphname = H;
lastChange = "2023-07-30 17:59:32 +0000";
layers = (
{
layerId = "506641A2-9742-4A10-B0B8-C0DC56E2C3BB";
paths = (
{
closed = 1;
nodes = (
"357 -7 OFFCURVE",
"486 121 OFFCURVE",
"480 129 CURVE SMOOTH",
"478 132 OFFCURVE",
"476 134 OFFCURVE",
"474 136 CURVE SMOOTH",
"463 150 OFFCURVE",
"456 173 OFFCURVE",
"456 190 CURVE SMOOTH",
"456 631 LINE SMOOTH",
"456 659 OFFCURVE",
"448 680 OFFCURVE",
"434 695 CURVE SMOOTH",
"429 700 LINE SMOOTH",
"423 707 OFFCURVE",
"294 579 OFFCURVE",
"301 572 CURVE SMOOTH",
"306 567 LINE SMOOTH",
"319 553 OFFCURVE",
"328 528 OFFCURVE",
"328 508 CURVE SMOOTH",
"328 65 LINE SMOOTH",
"328 40 OFFCURVE",
"334 22 OFFCURVE",
"346 7 CURVE SMOOTH",
"348 4 OFFCURVE",
"349 2 OFFCURVE",
"351 0 CURVE SMOOTH"
);
},
{
closed = 1;
nodes = (
"146 -7 OFFCURVE",
"275 121 OFFCURVE",
"268 129 CURVE",
"267 132 OFFCURVE",
"265 134 OFFCURVE",
"263 136 CURVE SMOOTH",
"252 150 OFFCURVE",
"245 173 OFFCURVE",
"245 190 CURVE SMOOTH",
"245 631 LINE SMOOTH",
"245 659 OFFCURVE",
"237 680 OFFCURVE",
"223 695 CURVE SMOOTH",
"218 700 LINE SMOOTH",
"211 707 OFFCURVE",
"83 579 OFFCURVE",
"90 572 CURVE SMOOTH",
"94 567 LINE SMOOTH",
"108 553 OFFCURVE",
"116 528 OFFCURVE",
"116 508 CURVE SMOOTH",
"116 65 LINE SMOOTH",
"116 40 OFFCURVE",
"123 22 OFFCURVE",
"135 7 CURVE SMOOTH",
"137 4 OFFCURVE",
"138 2 OFFCURVE",
"140 0 CURVE SMOOTH"
);
},
{
closed = 1;
nodes = (
"465 237 LINE SMOOTH",
"481 237 OFFCURVE",
"530 363 OFFCURVE",
"530 398 CURVE SMOOTH",
"530 404 OFFCURVE",
"529 407 OFFCURVE",
"526 407 CURVE SMOOTH",
"105 407 LINE SMOOTH",
"88 407 OFFCURVE",
"40 282 OFFCURVE",
"40 246 CURVE SMOOTH",
"40 240 OFFCURVE",
"41 237 OFFCURVE",
"44 237 CURVE SMOOTH"
);
}
);
width = 570;
}
);
leftMetricsKey = N;
rightMetricsKey = N;
unicode = 0048;
},
{
glyphname = I;
lastChange = "2023-07-30 17:59:47 +0000";
layers = (
{
guideLines = (
{
angle = 90;
position = "{227, 0}";
}
);
layerId = "506641A2-9742-4A10-B0B8-C0DC56E2C3BB";
paths = (
{
closed = 1;
nodes = (
"94 -7 OFFCURVE",
"223 120 OFFCURVE",
"217 129 CURVE",
"215 131 OFFCURVE",
"213 133 OFFCURVE",
"212 135 CURVE",
"201 149 OFFCURVE",
"195 172 OFFCURVE",
"195 190 CURVE SMOOTH",
"195 631 LINE SMOOTH",
"195 659 OFFCURVE",
"186 680 OFFCURVE",
"173 695 CURVE SMOOTH",
"172 696 OFFCURVE",
"170 698 OFFCURVE",
"169 700 CURVE",
"162 707 OFFCURVE",
"34 579 OFFCURVE",
"40 571 CURVE",
"42 570 OFFCURVE",
"43 568 OFFCURVE",
"45 567 CURVE",
"57 553 OFFCURVE",
"65 527 OFFCURVE",
"65 507 CURVE SMOOTH",
"65 66 LINE SMOOTH",
"65 40 OFFCURVE",
"72 22 OFFCURVE",
"83 7 CURVE SMOOTH",
"85 5 OFFCURVE",
"87 2 OFFCURVE",
"88 0 CURVE"
);
}
);
width = 257;
}
);
leftMetricsKey = N;
rightKerningGroup = S;
rightMetricsKey = N;
unicode = 0049;
},
{
glyphname = N;
lastChange = "2023-07-30 17:57:15 +0000";
layers = (
{
guideLines = (
{
position = "{54, 750}";
},
{
position = "{54, 0}";
},
{
angle = 90;
position = "{54, 0}";
},
{
angle = 90;
position = "{503, 0}";
}
);
layerId = "506641A2-9742-4A10-B0B8-C0DC56E2C3BB";
paths = (
{
closed = 1;
nodes = (
"422 -16 OFFCURVE",
"550 114 OFFCURVE",
"540 130 CURVE SMOOTH",
"416 320 OFFCURVE",
"293 510 OFFCURVE",
"170 700 CURVE SMOOTH",
"159 717 OFFCURVE",
"30 588 OFFCURVE",
"41 572 CURVE SMOOTH",
"411 0 LINE SMOOTH"
);
},
{
closed = 1;
nodes = (
"93 10 OFFCURVE",
"106 2 OFFCURVE",
"118 2 CURVE SMOOTH",
"131 2 OFFCURVE",
"143 10 OFFCURVE",
"143 26 CURVE SMOOTH",
"143 551 LINE SMOOTH",
"143 567 OFFCURVE",
"131 575 OFFCURVE",
"118 575 CURVE SMOOTH",
"106 575 OFFCURVE",
"93 567 OFFCURVE",
"93 551 CURVE SMOOTH",
"93 26 LINE SMOOTH"
);
},
{
closed = 1;
nodes = (
"424 -15 OFFCURVE",
"552 114 OFFCURVE",
"540 130 CURVE SMOOTH",
"535 136 LINE SMOOTH",
"523 152 OFFCURVE",
"519 166 OFFCURVE",
"519 189 CURVE SMOOTH",
"519 632 LINE SMOOTH",
"519 651 OFFCURVE",
"508 683 OFFCURVE",
"496 695 CURVE",
"495 697 OFFCURVE",
"493 698 OFFCURVE",
"492 700 CURVE",
"479 714 OFFCURVE",
"350 587 OFFCURVE",
"364 572 CURVE",
"365 570 OFFCURVE",
"367 568 OFFCURVE",
"368 567 CURVE SMOOTH",
"382 551 OFFCURVE",
"388 534 OFFCURVE",
"388 508 CURVE SMOOTH",
"388 67 LINE SMOOTH",
"388 49 OFFCURVE",
"397 18 OFFCURVE",
"406 7 CURVE",
"407 5 OFFCURVE",
"409 2 OFFCURVE",
"411 0 CURVE SMOOTH"
);
}
);
width = 581;
}
);
unicode = 004E;
},
{
glyphname = O;
lastChange = "2023-07-30 17:57:23 +0000";
layers = (
{
guideLines = (
{
angle = 90;
position = "{65, 0}";
}
);
layerId = "506641A2-9742-4A10-B0B8-C0DC56E2C3BB";
paths = (
{
closed = 1;
nodes = (
"337 38 OFFCURVE",
"442 245 OFFCURVE",
"442 276 CURVE SMOOTH",
"442 535 LINE SMOOTH",
"442 625 OFFCURVE",
"373 703 OFFCURVE",
"287 703 CURVE SMOOTH",
"274 703 OFFCURVE",
"261 701 OFFCURVE",
"247 697 CURVE SMOOTH",
"126 662 OFFCURVE",
"20 455 OFFCURVE",
"20 423 CURVE SMOOTH",
"20 164 LINE SMOOTH",
"20 74 OFFCURVE",
"89 -3 OFFCURVE",
"174 -3 CURVE SMOOTH",
"187 -3 OFFCURVE",
"201 -1 OFFCURVE",
"215 3 CURVE SMOOTH"
);
},
{
closed = 1;
nodes = (
"319 128 OFFCURVE",
"307 126 OFFCURVE",
"295 126 CURVE SMOOTH",
"220 126 OFFCURVE",
"149 190 OFFCURVE",
"149 286 CURVE SMOOTH",
"149 545 LINE SMOOTH",
"149 587 OFFCURVE",
"146 600 OFFCURVE",
"143 600 CURVE SMOOTH",
"137 600 OFFCURVE",
"131 568 OFFCURVE",
"132 569 CURVE",
"144 572 OFFCURVE",
"156 574 OFFCURVE",
"168 574 CURVE SMOOTH",
"243 574 OFFCURVE",
"313 509 OFFCURVE",
"313 413 CURVE SMOOTH",
"313 154 LINE SMOOTH",
"313 112 OFFCURVE",
"316 99 OFFCURVE",
"320 99 CURVE SMOOTH",
"325 99 OFFCURVE",
"332 131 OFFCURVE",
"331 131 CURVE"
);
}
);
width = 462;
}
);
unicode = 004F;
},
{
glyphname = S;
lastChange = "2023-07-30 17:59:41 +0000";
layers = (
{
layerId = "506641A2-9742-4A10-B0B8-C0DC56E2C3BB";
paths = (
{
closed = 1;
nodes = (
"392 157 OFFCURVE",
"429 218 OFFCURVE",
"429 265 CURVE SMOOTH",
"429 328 OFFCURVE",
"362 367 OFFCURVE",
"300 424 CURVE SMOOTH",
"221 497 OFFCURVE",
"206 535 OFFCURVE",
"206 554 CURVE SMOOTH",
"206 564 OFFCURVE",
"210 568 OFFCURVE",
"211 569 CURVE SMOOTH",
"213 571 OFFCURVE",
"217 572 OFFCURVE",
"223 572 CURVE SMOOTH",
"249 572 OFFCURVE",
"303 548 OFFCURVE",
"303 491 CURVE SMOOTH",
"303 487 OFFCURVE",
"303 483 OFFCURVE",
"302 479 CURVE SMOOTH",
"301 469 OFFCURVE",
"304 465 OFFCURVE",
"311 465 CURVE SMOOTH",
"339 465 OFFCURVE",
"423 541 OFFCURVE",
"428 580 CURVE SMOOTH",
"434 629 OFFCURVE",
"409 700 OFFCURVE",
"342 700 CURVE SMOOTH",
"311 700 OFFCURVE",
"272 685 OFFCURVE",
"223 646 CURVE SMOOTH",
"117 562 OFFCURVE",
"81 500 OFFCURVE",
"81 449 CURVE SMOOTH",
"81 387 OFFCURVE",
"136 343 OFFCURVE",
"180 302 CURVE SMOOTH",
"272 216 OFFCURVE",
"295 176 OFFCURVE",
"295 154 CURVE SMOOTH",
"295 141 OFFCURVE",
"288 134 OFFCURVE",
"281 128 CURVE",
"280 128 OFFCURVE",
"268 123 OFFCURVE",
"250 123 CURVE SMOOTH",
"220 123 OFFCURVE",
"174 138 OFFCURVE",
"146 218 CURVE SMOOTH",
"144 223 OFFCURVE",
"141 225 OFFCURVE",
"136 225 CURVE SMOOTH",
"103 225 OFFCURVE",
"11 134 OFFCURVE",
"21 105 CURVE SMOOTH",
"45 34 OFFCURVE",
"90 0 OFFCURVE",
"144 0 CURVE SMOOTH",
"188 0 OFFCURVE",
"238 22 OFFCURVE",
"288 66 CURVE SMOOTH"
);
}
);
width = 449;
}
);
leftKerningGroup = S;
leftMetricsKey = O;
rightKerningGroup = S;
rightMetricsKey = O;
unicode = 0053;
},
{
glyphname = A.ss01;
lastChange = "2023-07-30 18:03:01 +0000";
layers = (
{
guideLines = (
{
angle = 90;
position = "{-127, 0}";
},
{
angle = 90;
position = "{323, 0}";
}
);
layerId = "506641A2-9742-4A10-B0B8-C0DC56E2C3BB";
paths = (
{
closed = 1;
nodes = (
"147 2 OFFCURVE",
"160 6 OFFCURVE",
"179 17 CURVE",
"180 18 OFFCURVE",
"180 18 OFFCURVE",
"180 19 CURVE SMOOTH",
"180 101 OFFCURVE",
"179 178 OFFCURVE",
"179 246 CURVE SMOOTH",
"179 432 OFFCURVE",
"186 556 OFFCURVE",
"242 556 CURVE SMOOTH",
"272 556 OFFCURVE",
"285 492 OFFCURVE",
"291 407 CURVE SMOOTH",
"294 352 OFFCURVE",
"294 289 OFFCURVE",
"294 229 CURVE SMOOTH",
"294 222 LINE SMOOTH",
"294 70 OFFCURVE",
"327 0 OFFCURVE",
"395 0 CURVE SMOOTH",
"469 0 OFFCURVE",
"550 117 OFFCURVE",
"552 117 CURVE",
"544 115 OFFCURVE",
"536 114 OFFCURVE",
"529 114 CURVE SMOOTH",
"476 114 OFFCURVE",
"456 161 OFFCURVE",
"447 231 CURVE SMOOTH",
"441 276 OFFCURVE",
"441 332 OFFCURVE",
"441 393 CURVE SMOOTH",
"441 406 LINE SMOOTH",
"439 575 OFFCURVE",
"403 700 OFFCURVE",
"309 700 CURVE SMOOTH",
"136 700 OFFCURVE",
"120 487 OFFCURVE",
"120 204 CURVE SMOOTH",
"120 140 OFFCURVE",
"121 72 OFFCURVE",
"121 2 CURVE SMOOTH",
"121 1 OFFCURVE",
"122 0 OFFCURVE",
"123 0 CURVE SMOOTH"
);
},
{
closed = 1;
nodes = (
"443 228 OFFCURVE",
"445 229 OFFCURVE",
"447 231 CURVE SMOOTH",
"467 249 OFFCURVE",
"511 362 OFFCURVE",
"511 396 CURVE SMOOTH",
"511 402 OFFCURVE",
"509 406 OFFCURVE",
"506 406 CURVE SMOOTH",
"441 406 LINE SMOOTH",
"393 406 OFFCURVE",
"341 406 OFFCURVE",
"291 407 CURVE SMOOTH",
"182 407 LINE SMOOTH",
"163 407 OFFCURVE",
"144 407 OFFCURVE",
"126 408 CURVE SMOOTH",
"109 408 LINE SMOOTH",
"91 408 OFFCURVE",
"40 275 OFFCURVE",
"40 239 CURVE SMOOTH",
"40 233 OFFCURVE",
"41 230 OFFCURVE",
"44 230 CURVE SMOOTH",
"69 230 OFFCURVE",
"95 229 OFFCURVE",
"121 229 CURVE SMOOTH",
"140 229 OFFCURVE",
"160 229 OFFCURVE",
"179 229 CURVE SMOOTH",
"294 229 LINE SMOOTH",
"345 228 OFFCURVE",
"395 228 OFFCURVE",
"442 228 CURVE SMOOTH"
);
}
);
width = 592;
}
);
leftKerningGroup = A;
leftMetricsKey = N;
rightKerningGroup = A;
rightMetricsKey = N;
},
{
glyphname = D.ss01;
lastChange = "2023-07-30 18:01:46 +0000";
layers = (
{
layerId = "506641A2-9742-4A10-B0B8-C0DC56E2C3BB";
paths = (
{
closed = 1;
nodes = (
"477 0 OFFCURVE",
"507 200 OFFCURVE",
"517 252 CURVE SMOOTH",
"522 278 OFFCURVE",
"524 302 OFFCURVE",
"524 324 CURVE SMOOTH",
"524 532 OFFCURVE",
"301 563 OFFCURVE",
"110 700 CURVE",
"84 654 OFFCURVE",
"73 623 OFFCURVE",
"53 538 CURVE",
"99 495 OFFCURVE",
"370 374 OFFCURVE",
"409 252 CURVE SMOOTH",
"415 231 OFFCURVE",
"419 215 OFFCURVE",
"419 203 CURVE SMOOTH",
"419 172 OFFCURVE",
"400 161 OFFCURVE",
"350 161 CURVE SMOOTH",
"219 161 OFFCURVE",
"153 208 OFFCURVE",
"125 236 CURVE SMOOTH",
"122 238 OFFCURVE",
"116 240 OFFCURVE",
"111 240 CURVE SMOOTH",
"105 240 OFFCURVE",
"99 237 OFFCURVE",
"96 232 CURVE SMOOTH",
"65 188 OFFCURVE",
"48 150 OFFCURVE",
"40 97 CURVE",
"40 97 OFFCURVE",
"103 0 OFFCURVE",
"282 0 CURVE SMOOTH"
);
},
{
closed = 1;
nodes = (
"164 147 LINE",
"164 594 LINE",
"102 594 LINE",
"102 147 LINE"
);
}
);
width = 544;
}
);
leftMetricsKey = N;
rightMetricsKey = O;
},
{
glyphname = E.ss01;
lastChange = "2023-07-30 18:01:50 +0000";
layers = (
{
layerId = "506641A2-9742-4A10-B0B8-C0DC56E2C3BB";
paths = (
{
closed = 1;
nodes = (
"518 6 OFFCURVE",
"508 168 OFFCURVE",
"508 189 CURVE",
"483 173 OFFCURVE",
"456 168 OFFCURVE",
"427 168 CURVE SMOOTH",
"351 168 OFFCURVE",
"267 208 OFFCURVE",
"198 208 CURVE SMOOTH",
"103 208 OFFCURVE",
"61 173 OFFCURVE",
"55 166 CURVE SMOOTH",
"51 160 OFFCURVE",
"44 47 OFFCURVE",
"41 13 CURVE SMOOTH",
"41 10 OFFCURVE",
"44 7 OFFCURVE",
"48 9 CURVE SMOOTH",
"61 15 OFFCURVE",
"91 28 OFFCURVE",
"135 30 CURVE SMOOTH",
"249 36 OFFCURVE",
"314 -1 OFFCURVE",
"400 -1 CURVE SMOOTH",
"407 -1 OFFCURVE",
"414 -1 OFFCURVE",
"421 0 CURVE SMOOTH"
);
},
{
closed = 1;
nodes = (
"194 132 LINE",
"194 580 LINE",
"135 580 LINE",
"135 132 LINE"
);
},
{
closed = 1;
nodes = (
"401 273 LINE SMOOTH",
"418 273 OFFCURVE",
"482 450 OFFCURVE",
"465 450 CURVE SMOOTH",
"106 450 LINE SMOOTH",
"88 450 OFFCURVE",
"27 273 OFFCURVE",
"43 273 CURVE SMOOTH"
);
},
{
closed = 1;
nodes = (
"449 523 LINE SMOOTH",
"464 523 OFFCURVE",
"514 659 OFFCURVE",
"514 693 CURVE SMOOTH",
"514 697 OFFCURVE",
"513 700 OFFCURVE",
"511 700 CURVE SMOOTH",
"106 700 LINE SMOOTH",
"88 700 OFFCURVE",
"27 523 OFFCURVE",
"43 523 CURVE SMOOTH"
);
}
);
width = 554;
}
);
leftMetricsKey = N;
rightMetricsKey = N;
},
{
glyphname = H.ss01;
lastChange = "2023-07-30 18:01:54 +0000";
layers = (
{
layerId = "506641A2-9742-4A10-B0B8-C0DC56E2C3BB";
paths = (
{
closed = 1;
nodes = (
"83 513 OFFCURVE",
"83 123 OFFCURVE",
"83 4 CURVE",
"83 -18 OFFCURVE",
"229 45 OFFCURVE",
"229 65 CURVE",
"229 185 OFFCURVE",
"229 575 OFFCURVE",
"229 695 CURVE",
"229 716 OFFCURVE",
"83 654 OFFCURVE",
"83 633 CURVE"
);
},
{
closed = 1;
nodes = (
"327 513 OFFCURVE",
"327 123 OFFCURVE",
"327 4 CURVE",
"327 -18 OFFCURVE",
"473 45 OFFCURVE",
"473 65 CURVE",
"473 185 OFFCURVE",
"473 575 OFFCURVE",
"473 695 CURVE",
"473 716 OFFCURVE",
"327 654 OFFCURVE",
"327 633 CURVE"
);
},
{
closed = 1;
nodes = (
"106 448 LINE",
"85 448 OFFCURVE",
"23 274 OFFCURVE",
"44 274 CURVE",
"445 274 LINE",
"465 274 OFFCURVE",
"529 448 OFFCURVE",
"507 448 CURVE"
);
}
);
width = 552;
}
);
leftMetricsKey = N;
rightMetricsKey = N;
},
{
glyphname = I.ss01;
lastChange = "2023-07-30 18:02:00 +0000";
layers = (
{
layerId = "506641A2-9742-4A10-B0B8-C0DC56E2C3BB";
paths = (
{
closed = 1;
nodes = (
"40 513 OFFCURVE",
"40 123 OFFCURVE",
"40 4 CURVE",
"40 -18 OFFCURVE",
"186 45 OFFCURVE",
"186 65 CURVE",
"186 185 OFFCURVE",
"186 575 OFFCURVE",
"186 695 CURVE",
"186 716 OFFCURVE",
"40 654 OFFCURVE",
"40 633 CURVE"
);
}
);
width = 226;
}
);
leftMetricsKey = N;
rightMetricsKey = N;
},
{
glyphname = N.ss01;
lastChange = "2023-07-30 18:02:04 +0000";
layers = (
{
layerId = "506641A2-9742-4A10-B0B8-C0DC56E2C3BB";
paths = (
{
closed = 1;
nodes = (
"452 0 OFFCURVE",
"528 142 OFFCURVE",
"543 183 CURVE",
"543 183 OFFCURVE",
"516 159 OFFCURVE",
"488 159 CURVE SMOOTH",
"292 159 OFFCURVE",
"233 585 OFFCURVE",
"152 669 CURVE",
"40 508 LINE",
"163 177 OFFCURVE",
"226 0 OFFCURVE",
"346 0 CURVE SMOOTH"
);
},
{
closed = 1;
nodes = (
"91 2 OFFCURVE",
"105 6 OFFCURVE",
"123 18 CURVE",
"124 18 OFFCURVE",
"124 19 OFFCURVE",
"124 19 CURVE",
"124 491 LINE",
"66 491 LINE",
"66 2 LINE SMOOTH",
"66 1 OFFCURVE",
"67 0 OFFCURVE",
"68 0 CURVE SMOOTH"
);
},
{
closed = 1;
nodes = (
"453 91 LINE",
"453 506 LINE",
"391 506 LINE",
"391 91 LINE"
);
},
{
closed = 1;
nodes = (
"552 452 OFFCURVE",
"540 625 OFFCURVE",
"580 665 CURVE",
"580 665 OFFCURVE",
"529 639 OFFCURVE",
"478 640 CURVE SMOOTH",
"427 640 OFFCURVE",
"393 700 OFFCURVE",
"393 700 CURVE",
"305 546 LINE",
"305 546 OFFCURVE",
"351 452 OFFCURVE",
"437 452 CURVE SMOOTH"
);
}
);
width = 620;
}
);
leftMetricsKey = N;
rightMetricsKey = N;
},
{
glyphname = O.ss01;
lastChange = "2023-07-30 18:02:09 +0000";
layers = (
{
layerId = "506641A2-9742-4A10-B0B8-C0DC56E2C3BB";
paths = (
{
closed = 1;
nodes = (
"131 501 OFFCURVE",
"164 536 OFFCURVE",
"164 536 CURVE",
"282 485 OFFCURVE",
"393 434 OFFCURVE",
"393 150 CURVE",
"393 151 OFFCURVE",
"131 134 OFFCURVE",
"131 317 CURVE"
);
},
{
closed = 1;
nodes = (
"131 536 LINE",
"131 536 OFFCURVE",
"20 457 OFFCURVE",
"20 259 CURVE",
"20 70 OFFCURVE",
"149 -11 OFFCURVE",
"246 -11 CURVE",
"361 -11 OFFCURVE",
"505 106 OFFCURVE",
"505 323 CURVE",
"505 665 OFFCURVE",
"204 700 OFFCURVE",
"204 700 CURVE"
);
}
);
width = 525;
}
);
leftKerningGroup = O;
leftMetricsKey = O;
rightKerningGroup = O;
rightMetricsKey = O;
},
{
glyphname = S.ss01;
lastChange = "2023-07-30 18:02:12 +0000";
layers = (
{
layerId = "506641A2-9742-4A10-B0B8-C0DC56E2C3BB";
paths = (
{
closed = 1;
nodes = (
"295 449 OFFCURVE",
"415 565 OFFCURVE",
"413 615 CURVE",
"230 863 OFFCURVE",
"-216 494 OFFCURVE",
"177 300 CURVE",
"379 191 OFFCURVE",
"342 167 OFFCURVE",
"335 161 CURVE SMOOTH",
"328 153 OFFCURVE",
"229 105 OFFCURVE",
"153 221 CURVE SMOOTH",
"129 256 OFFCURVE",
"6 118 OFFCURVE",
"28 84 CURVE",
"163 -36 OFFCURVE",
"263 -20 OFFCURVE",
"365 81 CURVE SMOOTH",
"566 279 OFFCURVE",
"435 368 OFFCURVE",
"294 445 CURVE SMOOTH",
"126 535 OFFCURVE",
"140 541 OFFCURVE",
"155 559 CURVE",
"178 580 OFFCURVE",
"289 577 OFFCURVE",
"292 505 CURVE SMOOTH"
);
}
);
width = 488;
}
);
leftMetricsKey = O;
rightMetricsKey = O;
},
{
glyphname = a;
lastChange = "2023-07-30 16:13:25 +0000";
layers = (
{
guideLines = (
{
angle = 90;
position = "{83, 0}";
},
{
angle = 90;
position = "{582, 0}";
}
);
layerId = "506641A2-9742-4A10-B0B8-C0DC56E2C3BB";
paths = (
{
closed = 1;
nodes = (
"153 77 OFFCURVE",
"166 68 OFFCURVE",
"180 68 CURVE SMOOTH",
"191 68 OFFCURVE",
"203 75 OFFCURVE",
"204 90 CURVE SMOOTH",
"204 91 OFFCURVE",
"235 477 OFFCURVE",
"249 566 CURVE SMOOTH",
"251 577 OFFCURVE",
"254 601 OFFCURVE",
"259 601 CURVE SMOOTH",
"265 601 OFFCURVE",
"273 568 OFFCURVE",
"282 441 CURVE SMOOTH",
"288 344 OFFCURVE",
"313 81 OFFCURVE",
"313 79 CURVE SMOOTH",
"314 68 OFFCURVE",
"314 62 OFFCURVE",
"316 54 CURVE SMOOTH",
"323 27 OFFCURVE",
"343 1 OFFCURVE",
"377 1 CURVE SMOOTH",
"388 1 OFFCURVE",
"400 4 OFFCURVE",
"414 10 CURVE SMOOTH",
"451 26 OFFCURVE",
"553 137 OFFCURVE",
"530 137 CURVE SMOOTH",
"529 137 OFFCURVE",
"526 137 OFFCURVE",
"522 135 CURVE SMOOTH",
"515 132 OFFCURVE",
"507 130 OFFCURVE",
"500 130 CURVE SMOOTH",
"474 130 OFFCURVE",
"452 150 OFFCURVE",
"443 181 CURVE SMOOTH",
"441 188 OFFCURVE",
"441 198 OFFCURVE",
"441 203 CURVE SMOOTH",
"440 212 OFFCURVE",
"416 470 OFFCURVE",
"409 568 CURVE SMOOTH",
"403 662 OFFCURVE",
"367 697 OFFCURVE",
"326 697 CURVE SMOOTH",
"251 697 OFFCURVE",
"208 634 OFFCURVE",
"198 569 CURVE SMOOTH",
"181 459 OFFCURVE",
"156 111 OFFCURVE",
"155 94 CURVE SMOOTH"
);
},
{
closed = 1;
nodes = (
"124 434 LINE SMOOTH",
"107 434 OFFCURVE",
"60 309 OFFCURVE",
"60 274 CURVE SMOOTH",
"60 268 OFFCURVE",
"61 264 OFFCURVE",
"64 264 CURVE SMOOTH",
"482 264 LINE SMOOTH",
"498 264 OFFCURVE",
"546 388 OFFCURVE",
"546 424 CURVE SMOOTH",
"546 430 OFFCURVE",
"545 434 OFFCURVE",
"542 434 CURVE SMOOTH"
);
},
{
closed = 1;
nodes = (
"105 150 OFFCURVE",
"50 -14 OFFCURVE",
"65 1 CURVE",
"65 1 OFFCURVE",
"103 41 OFFCURVE",
"153 39 CURVE SMOOTH",
"203 37 OFFCURVE",
"213 2 OFFCURVE",
"213 2 CURVE",
"219 -17 OFFCURVE",
"285 140 OFFCURVE",
"277 167 CURVE SMOOTH",
"276 169 OFFCURVE",
"264 207 OFFCURVE",
"214 209 CURVE SMOOTH",
"162 211 OFFCURVE",
"124 170 OFFCURVE",
"123 168 CURVE"
);
}
);
width = 606;
}
);
leftKerningGroup = A;
leftMetricsKey = N;
rightKerningGroup = A;
rightMetricsKey = N;
unicode = 0061;
},
{
glyphname = d;
lastChange = "2023-07-30 18:00:06 +0000";
layers = (
{
layerId = "506641A2-9742-4A10-B0B8-C0DC56E2C3BB";
paths = (
{
closed = 1;
nodes = (
"366 0 OFFCURVE",
"463 71 OFFCURVE",
"500 195 CURVE SMOOTH",
"507 218 OFFCURVE",
"510 241 OFFCURVE",
"508 261 CURVE SMOOTH",
"508 504 OFFCURVE",
"124 688 OFFCURVE",
"111 699 CURVE SMOOTH",
"100 705 OFFCURVE",
"38 534 OFFCURVE",
"49 528 CURVE SMOOTH",
"55 525 OFFCURVE",
"382 363 OFFCURVE",
"381 138 CURVE SMOOTH",
"381 116 OFFCURVE",
"377 94 OFFCURVE",
"372 72 CURVE",
"371 71 OFFCURVE",
"409 125 OFFCURVE",
"408 156 CURVE SMOOTH",
"408 169 OFFCURVE",
"401 179 OFFCURVE",
"383 180 CURVE SMOOTH",
"370 180 OFFCURVE",
"301 185 OFFCURVE",
"232 184 CURVE SMOOTH",
"181 184 OFFCURVE",
"129 181 OFFCURVE",
"103 171 CURVE SMOOTH",
"83 163 OFFCURVE",
"24 -7 OFFCURVE",
"44 1 CURVE SMOOTH",
"67 11 OFFCURVE",
"105 15 OFFCURVE",
"147 15 CURVE SMOOTH",
"234 15 OFFCURVE",
"339 0 OFFCURVE",
"365 0 CURVE SMOOTH"
);
},
{
closed = 1;
nodes = (
"116 13 OFFCURVE",
"128 20 OFFCURVE",
"127 36 CURVE SMOOTH",
"130 212 OFFCURVE",
"132 388 OFFCURVE",
"135 563 CURVE SMOOTH",
"135 580 OFFCURVE",
"122 588 OFFCURVE",
"110 584 CURVE SMOOTH",
"98 584 OFFCURVE",
"86 577 OFFCURVE",
"85 564 CURVE SMOOTH",
"82 389 OFFCURVE",
"80 213 OFFCURVE",
"77 37 CURVE SMOOTH",
"77 21 OFFCURVE",
"90 13 OFFCURVE",
"104 13 CURVE SMOOTH"
);
}
);
width = 529;
}
);
leftKerningGroup = D;
leftMetricsKey = N;
rightKerningGroup = D;
rightMetricsKey = O;
unicode = 0064;
},
{
glyphname = e;
lastChange = "2023-07-30 18:00:14 +0000";
layers = (
{
layerId = "506641A2-9742-4A10-B0B8-C0DC56E2C3BB";
paths = (
{
closed = 1;
nodes = (
"52 0 OFFCURVE",
"55 2 OFFCURVE",
"58 6 CURVE",
"58 6 OFFCURVE",
"88 52 OFFCURVE",
"150 52 CURVE SMOOTH",
"161 52 OFFCURVE",
"173 50 OFFCURVE",
"185 47 CURVE SMOOTH",
"257 27 OFFCURVE",
"316 6 OFFCURVE",
"374 6 CURVE SMOOTH",
"408 6 OFFCURVE",
"441 13 OFFCURVE",
"477 32 CURVE SMOOTH",
"496 42 OFFCURVE",
"558 221 OFFCURVE",
"538 209 CURVE SMOOTH",
"505 192 OFFCURVE",
"473 185 OFFCURVE",
"439 185 CURVE SMOOTH",
"382 185 OFFCURVE",
"322 206 OFFCURVE",
"249 225 CURVE SMOOTH",
"238 228 OFFCURVE",
"228 229 OFFCURVE",
"217 229 CURVE SMOOTH",
"154 229 OFFCURVE",
"110 177 OFFCURVE",
"108 173 CURVE",
"84 142 OFFCURVE",
"37 0 OFFCURVE",
"51 0 CURVE SMOOTH"
);
},
{
closed = 1;
nodes = (
"118 70 OFFCURVE",
"172 193 OFFCURVE",
"172 233 CURVE SMOOTH",
"172 657 LINE SMOOTH",
"172 662 OFFCURVE",
"171 665 OFFCURVE",
"169 665 CURVE SMOOTH",
"156 665 OFFCURVE",
"102 541 OFFCURVE",
"102 502 CURVE SMOOTH",
"102 78 LINE SMOOTH",
"102 73 OFFCURVE",
"103 70 OFFCURVE",
"105 70 CURVE SMOOTH"
);
},
{
closed = 1;
nodes = (
"454 268 LINE SMOOTH",
"470 268 OFFCURVE",
"534 434 OFFCURVE",
"517 434 CURVE SMOOTH",
"106 434 LINE SMOOTH",
"88 434 OFFCURVE",
"27 268 OFFCURVE",
"43 268 CURVE SMOOTH"
);
},
{
closed = 1;
nodes = (
"485 521 LINE SMOOTH",
"501 521 OFFCURVE",
"565 699 OFFCURVE",
"548 699 CURVE SMOOTH",
"106 699 LINE SMOOTH",
"88 699 OFFCURVE",
"27 521 OFFCURVE",
"43 521 CURVE SMOOTH"
);
}
);
width = 591;
}
);
leftKerningGroup = E;
leftMetricsKey = N;
rightKerningGroup = E;
rightMetricsKey = N;
unicode = 0065;
},
{
glyphname = h;
lastChange = "2023-07-30 18:00:09 +0000";
layers = (
{
layerId = "506641A2-9742-4A10-B0B8-C0DC56E2C3BB";
paths = (
{
closed = 1;
nodes = (
"357 -7 OFFCURVE",
"486 120 OFFCURVE",
"479 129 CURVE SMOOTH",
"477 131 OFFCURVE",
"475 133 OFFCURVE",
"474 135 CURVE",
"463 149 OFFCURVE",
"455 172 OFFCURVE",
"455 190 CURVE SMOOTH",
"455 631 LINE SMOOTH",
"455 659 OFFCURVE",
"447 680 OFFCURVE",
"433 695 CURVE",
"431 696 OFFCURVE",
"430 698 OFFCURVE",
"428 700 CURVE SMOOTH",
"422 707 OFFCURVE",
"293 579 OFFCURVE",
"300 571 CURVE SMOOTH",
"305 566 LINE SMOOTH",
"318 552 OFFCURVE",
"327 527 OFFCURVE",
"327 507 CURVE SMOOTH",
"327 66 LINE SMOOTH",
"327 40 OFFCURVE",
"333 22 OFFCURVE",
"345 7 CURVE SMOOTH",
"347 5 OFFCURVE",
"349 3 OFFCURVE",
"351 0 CURVE SMOOTH"
);
},
{
closed = 1;
nodes = (
"145 -7 OFFCURVE",
"274 120 OFFCURVE",
"267 129 CURVE SMOOTH",
"262 135 LINE SMOOTH",
"251 149 OFFCURVE",
"244 172 OFFCURVE",
"244 190 CURVE SMOOTH",
"244 631 LINE SMOOTH",
"244 659 OFFCURVE",
"236 680 OFFCURVE",
"221 695 CURVE SMOOTH",
"216 700 LINE SMOOTH",
"210 707 OFFCURVE",
"81 579 OFFCURVE",
"88 571 CURVE SMOOTH",
"93 566 LINE SMOOTH",
"107 552 OFFCURVE",
"115 527 OFFCURVE",
"115 507 CURVE SMOOTH",
"115 66 LINE SMOOTH",
"115 40 OFFCURVE",
"121 22 OFFCURVE",
"134 7 CURVE",
"135 5 OFFCURVE",
"137 3 OFFCURVE",
"139 0 CURVE SMOOTH"
);
},
{
closed = 1;
nodes = (
"464 265 LINE SMOOTH",
"481 264 OFFCURVE",
"529 389 OFFCURVE",
"527 422 CURVE SMOOTH",
"527 428 OFFCURVE",
"526 432 OFFCURVE",
"524 435 CURVE",
"103 435 LINE SMOOTH",
"86 435 OFFCURVE",
"38 309 OFFCURVE",
"40 272 CURVE SMOOTH",
"40 266 OFFCURVE",
"42 262 OFFCURVE",
"43 265 CURVE"
);
}
);
width = 567;
}
);
leftMetricsKey = N;
rightMetricsKey = N;
unicode = 0068;
},
{
glyphname = i;
lastChange = "2023-07-30 18:00:27 +0000";
layers = (
{
layerId = "506641A2-9742-4A10-B0B8-C0DC56E2C3BB";
paths = (
{
closed = 1;
nodes = (
"92 -7 OFFCURVE",
"221 119 OFFCURVE",
"214 129 CURVE SMOOTH",
"213 131 OFFCURVE",
"211 133 OFFCURVE",
"209 135 CURVE SMOOTH",
"199 149 OFFCURVE",
"192 172 OFFCURVE",
"192 190 CURVE SMOOTH",
"192 631 LINE SMOOTH",
"192 660 OFFCURVE",
"185 680 OFFCURVE",
"172 695 CURVE SMOOTH",
"170 697 OFFCURVE",
"169 699 OFFCURVE",
"167 700 CURVE",
"161 707 OFFCURVE",
"33 580 OFFCURVE",
"40 572 CURVE SMOOTH",
"44 567 LINE SMOOTH",
"57 553 OFFCURVE",
"65 528 OFFCURVE",
"65 508 CURVE SMOOTH",
"65 66 LINE SMOOTH",
"65 40 OFFCURVE",
"71 22 OFFCURVE",
"82 7 CURVE SMOOTH",
"84 5 OFFCURVE",
"85 2 OFFCURVE",
"87 0 CURVE SMOOTH"
);
}
);
width = 254;
}
);
leftKerningGroup = I;
leftMetricsKey = N;
rightKerningGroup = I;
rightMetricsKey = N;
unicode = 0069;
},
{
glyphname = n;
lastChange = "2023-07-30 18:01:32 +0000";
layers = (
{
guideLines = (
{
angle = 90;
position = "{627, 0}";
}
);
layerId = "506641A2-9742-4A10-B0B8-C0DC56E2C3BB";
paths = (
{
closed = 1;
nodes = (
"507 7 OFFCURVE",
"636 138 OFFCURVE",
"607 138 CURVE SMOOTH",
"447 138 OFFCURVE",
"358 601 OFFCURVE",
"245 700 CURVE SMOOTH",
"231 712 OFFCURVE",
"100 583 OFFCURVE",
"115 569 CURVE SMOOTH",
"230 469 OFFCURVE",
"314 7 OFFCURVE",
"482 7 CURVE SMOOTH"
);
},
{
closed = 1;
nodes = (
"44 1 OFFCURVE",
"79 39 OFFCURVE",
"128 39 CURVE SMOOTH",
"181 39 OFFCURVE",
"194 0 OFFCURVE",
"194 0 CURVE",
"200 -20 OFFCURVE",
"268 140 OFFCURVE",
"259 168 CURVE",
"259 170 OFFCURVE",
"244 211 OFFCURVE",
"191 211 CURVE SMOOTH",
"141 211 OFFCURVE",
"101 169 OFFCURVE",
"101 169 CURVE",
"84 151 OFFCURVE",
"28 -17 OFFCURVE",
"42 -1 CURVE SMOOTH"
);
},
{
closed = 1;
nodes = (
"155 102 OFFCURVE",
"168 94 OFFCURVE",
"184 94 CURVE SMOOTH",
"197 94 OFFCURVE",
"209 102 OFFCURVE",
"206 118 CURVE SMOOTH",
"206 573 LINE SMOOTH",
"206 590 OFFCURVE",
"193 599 OFFCURVE",
"183 590 CURVE SMOOTH",
"171 590 OFFCURVE",
"159 582 OFFCURVE",
"155 573 CURVE SMOOTH",
"155 118 LINE SMOOTH"
);
},
{
closed = 1;
nodes = (
"509 110 OFFCURVE",
"522 102 OFFCURVE",
"531 102 CURVE SMOOTH",
"544 102 OFFCURVE",
"556 110 OFFCURVE",
"560 126 CURVE SMOOTH",
"560 583 LINE SMOOTH",
"560 599 OFFCURVE",
"547 607 OFFCURVE",
"530 598 CURVE SMOOTH",
"518 598 OFFCURVE",
"506 590 OFFCURVE",
"509 583 CURVE SMOOTH",
"509 126 LINE SMOOTH"
);
},
{
closed = 1;
nodes = (
"573 488 OFFCURVE",
"613 530 OFFCURVE",
"613 530 CURVE",
"631 550 OFFCURVE",
"684 715 OFFCURVE",
"672 701 CURVE",
"670 700 OFFCURVE",
"635 661 OFFCURVE",
"586 661 CURVE SMOOTH",
"533 661 OFFCURVE",
"520 701 OFFCURVE",
"520 701 CURVE",
"515 718 OFFCURVE",
"447 557 OFFCURVE",
"455 531 CURVE SMOOTH",
"456 529 OFFCURVE",
"470 488 OFFCURVE",
"523 488 CURVE SMOOTH"
);
}
);
width = 714;
}
);
leftKerningGroup = N;
leftMetricsKey = N;
rightKerningGroup = N;
rightMetricsKey = N;
unicode = 006E;
},
{
glyphname = o;
lastChange = "2023-07-30 18:01:28 +0000";
layers = (
{
layerId = "506641A2-9742-4A10-B0B8-C0DC56E2C3BB";
paths = (
{
closed = 1;
nodes = (
"371 17 OFFCURVE",
"457 89 OFFCURVE",
"497 228 CURVE SMOOTH",
"505 257 OFFCURVE",
"509 285 OFFCURVE",
"509 312 CURVE SMOOTH",
"509 544 OFFCURVE",
"239 708 OFFCURVE",
"232 712 CURVE SMOOTH",
"214 722 OFFCURVE",
"158 580 OFFCURVE",
"158 533 CURVE SMOOTH",
"158 526 OFFCURVE",
"159 521 OFFCURVE",
"162 519 CURVE SMOOTH",
"166 516 OFFCURVE",
"382 397 OFFCURVE",
"382 192 CURVE SMOOTH",
"382 164 OFFCURVE",
"378 135 OFFCURVE",
"369 105 CURVE",
"369 104 OFFCURVE",
"397 166 OFFCURVE",
"397 189 CURVE SMOOTH",
"397 195 OFFCURVE",
"396 198 OFFCURVE",
"392 198 CURVE SMOOTH",
"389 198 OFFCURVE",
"386 197 OFFCURVE",
"382 194 CURVE SMOOTH",
"349 172 OFFCURVE",
"317 163 OFFCURVE",
"287 163 CURVE SMOOTH",
"194 163 OFFCURVE",
"123 257 OFFCURVE",
"123 365 CURVE SMOOTH",
"123 411 OFFCURVE",
"136 460 OFFCURVE",
"166 505 CURVE SMOOTH",
"192 542 OFFCURVE",
"209 606 OFFCURVE",
"209 638 CURVE SMOOTH",
"209 649 OFFCURVE",
"207 656 OFFCURVE",
"202 656 CURVE SMOOTH",
"197 656 OFFCURVE",
"190 650 OFFCURVE",
"180 635 CURVE SMOOTH",
"63 460 OFFCURVE",
"20 331 OFFCURVE",
"20 236 CURVE SMOOTH",
"20 54 OFFCURVE",
"179 0 OFFCURVE",
"287 0 CURVE SMOOTH",
"324 0 OFFCURVE",
"355 7 OFFCURVE",
"371 17 CURVE"
);
}
);
width = 529;
}
);
leftKerningGroup = O;
leftMetricsKey = O;
rightKerningGroup = O;
rightMetricsKey = O;
unicode = 006F;
},
{
glyphname = s;
lastChange = "2023-07-30 18:00:23 +0000";
layers = (
{
layerId = "506641A2-9742-4A10-B0B8-C0DC56E2C3BB";
paths = (
{
closed = 1;
nodes = (
"233 283 OFFCURVE",
"329 375 OFFCURVE",
"329 408 CURVE SMOOTH",
"329 412 OFFCURVE",
"327 415 OFFCURVE",
"323 417 CURVE SMOOTH",
"109 515 OFFCURVE",
"121 560 OFFCURVE",
"123 563 CURVE SMOOTH",
"135 576 OFFCURVE",
"156 582 OFFCURVE",
"182 582 CURVE SMOOTH",
"264 582 OFFCURVE",
"388 524 OFFCURVE",
"388 466 CURVE SMOOTH",
"388 461 OFFCURVE",
"387 456 OFFCURVE",
"385 451 CURVE SMOOTH",
"382 445 OFFCURVE",
"381 440 OFFCURVE",
"381 436 CURVE SMOOTH",
"381 430 OFFCURVE",
"384 427 OFFCURVE",
"390 427 CURVE SMOOTH",
"415 427 OFFCURVE",
"486 484 OFFCURVE",
"504 531 CURVE SMOOTH",
"508 541 OFFCURVE",
"510 550 OFFCURVE",
"510 560 CURVE SMOOTH",
"510 637 OFFCURVE",
"398 711 OFFCURVE",
"288 711 CURVE SMOOTH",
"234 711 OFFCURVE",
"179 692 OFFCURVE",
"139 647 CURVE SMOOTH",
"58 556 OFFCURVE",
"26 493 OFFCURVE",
"26 447 CURVE SMOOTH",
"26 374 OFFCURVE",
"106 340 OFFCURVE",
"207 294 CURVE SMOOTH"
);
},
{
closed = 1;
nodes = (
"296 0 OFFCURVE",
"351 19 OFFCURVE",
"391 64 CURVE SMOOTH",
"472 155 OFFCURVE",
"504 217 OFFCURVE",
"504 264 CURVE SMOOTH",
"504 336 OFFCURVE",
"424 371 OFFCURVE",
"323 417 CURVE SMOOTH",
"298 428 OFFCURVE",
"201 336 OFFCURVE",
"201 303 CURVE SMOOTH",
"201 299 OFFCURVE",
"203 296 OFFCURVE",
"207 294 CURVE SMOOTH",
"421 196 OFFCURVE",
"409 150 OFFCURVE",
"407 147 CURVE SMOOTH",
"395 134 OFFCURVE",
"374 128 OFFCURVE",
"349 128 CURVE SMOOTH",
"267 128 OFFCURVE",
"142 187 OFFCURVE",
"142 245 CURVE SMOOTH",
"142 250 OFFCURVE",
"143 255 OFFCURVE",
"145 260 CURVE SMOOTH",
"148 266 OFFCURVE",
"149 271 OFFCURVE",
"149 275 CURVE SMOOTH",
"149 281 OFFCURVE",
"146 284 OFFCURVE",
"140 284 CURVE SMOOTH",
"115 284 OFFCURVE",
"43 225 OFFCURVE",
"26 180 CURVE SMOOTH",
"22 170 OFFCURVE",
"20 160 OFFCURVE",
"20 150 CURVE SMOOTH",
"20 73 OFFCURVE",
"131 0 OFFCURVE",
"241 0 CURVE SMOOTH"
);
}
);
width = 530;
}
);
leftKerningGroup = S;
leftMetricsKey = O;
rightKerningGroup = S;
rightMetricsKey = O;
unicode = 0073;
},
